<svg width="593" height="385" viewBox="0 0 593 385" fill="none" xmlns="http://www.w3.org/2000/svg">
<path d="M479.408 368.803L479.408 172.979" stroke="#4C4C4C" stroke-width="3"/>
<path d="M441.725 361.305L516.655 180.386" stroke="#4C4C4C" stroke-width="3"/>
<path d="M409.774 339.957L548.241 201.49" stroke="#4C4C4C" stroke-width="3"/>
<path d="M388.426 308.006L569.346 233.076" stroke="#4C4C4C" stroke-width="3"/>
<path d="M380.928 270.323L576.752 270.323" stroke="#4C4C4C" stroke-width="3"/>
<path d="M388.426 232.639L569.345 307.57" stroke="#4C4C4C" stroke-width="3"/>
<path d="M409.774 200.688L548.241 339.156" stroke="#4C4C4C" stroke-width="3"/>
<path d="M441.725 179.341L516.655 360.26" stroke="#4C4C4C" stroke-width="3"/>
<path d="M479.408 371.847C423.652 371.847 378.452 326.648 378.452 270.891C378.452 215.135 423.652 169.935 479.408 169.935C535.165 169.935 580.364 215.135 580.364 270.891C580.364 326.648 535.165 371.847 479.408 371.847Z" stroke="black" stroke-width="25"/>
<path d="M113.956 368.803L113.956 172.979" stroke="#4C4C4C" stroke-width="3"/>
<path d="M76.2724 361.305L151.203 180.386" stroke="#4C4C4C" stroke-width="3"/>
<path d="M44.3215 339.957L182.789 201.49" stroke="#4C4C4C" stroke-width="3"/>
<path d="M22.9737 308.006L203.893 233.076" stroke="#4C4C4C" stroke-width="3"/>
<path d="M15.4755 270.323L211.3 270.323" stroke="#4C4C4C" stroke-width="3"/>
<path d="M22.9737 232.639L203.893 307.57" stroke="#4C4C4C" stroke-width="3"/>
<path d="M44.3215 200.688L182.789 339.156" stroke="#4C4C4C" stroke-width="3"/>
<path d="M76.2724 179.341L151.203 360.26" stroke="#4C4C4C" stroke-width="3"/>
<path d="M113.956 371.847C58.1995 371.847 13 326.648 13 270.891C13 215.135 58.1996 169.935 113.956 169.935C169.713 169.935 214.912 215.135 214.912 270.891C214.912 326.648 169.713 371.847 113.956 371.847Z" stroke="black" stroke-width="25"/>
<path d="M325.005 273.547L480.154 273.547L369.435 153.033L161.922 105.816M325.005 273.547L155.069 130.243M325.005 273.547L394.897 84.0537M114.87 273.547L176.997 52.0767C154.613 45.6813 136.34 37.0018 136.34 26.4951C136.34 11.4202 159.181 10.0498 167.86 10.0498" stroke="#0094FF" stroke-width="17" stroke-linejoin="round"/>
<path d="M342.985 73.8601C330.584 74.9904 330.584 92.2035 342.985 93.3338L421.095 100.454C427.133 101.004 432.356 96.4875 432.356 90.7168L432.356 76.4771C432.356 70.7064 427.133 66.1899 421.095 66.7403L342.985 73.8601Z" fill="black"/>
<circle r="29.2361" transform="matrix(-1 -8.74228e-08 -8.74228e-08 1 319.066 272.262)" fill="#4C4C4C"/>
<circle r="14.6181" transform="matrix(-1 -8.74228e-08 -8.74228e-08 1 479.865 271.348)" fill="black"/>
<circle r="14.6181" transform="matrix(-1 -8.74228e-08 -8.74228e-08 1 114.413 271.348)" fill="black"/>
<rect width="69.4358" height="20.0998" rx="8" transform="matrix(-1 -8.74228e-08 -8.74228e-08 1 232.271 0)" fill="black"/>
<path d="M319.523 272.718L279.323 318.857" stroke="#797979" stroke-width="12"/>
<circle r="14.6181" transform="matrix(-1 -8.74228e-08 -8.74228e-08 1 319.066 272.262)" fill="black"/>
<rect width="69.4358" height="20.0998" rx="8" transform="matrix(-1 -8.74228e-08 -8.74228e-08 1 313.584 308.807)" fill="black"/>
</svg>
